<?xml version="1.0" encoding="utf-8"?>
<!-- Generator: Adobe Illustrator 21.0.0, SVG Export Plug-In . SVG Version: 6.00 Build 0)  -->
<svg version="1.0" id="Calque_1" xmlns="http://www.w3.org/2000/svg" xmlns:xlink="http://www.w3.org/1999/xlink" x="0px" y="0px"
	 viewBox="0 0 582 416.9" enable-background="new 0 0 582 416.9" xml:space="preserve">
<g>
	<path fill="#FF4B21" d="M291.4,176.9c63.6,0,127.3,0,190.9,0c19.1,0,33.4,14.8,32.7,33.4c-0.6,16.1-13.9,29.7-30.1,30.5
		c-1.2,0.1-2.3,0-3.5,0c-127,0-253.9,0-380.9,0c-18.6,0-33-13.2-33.5-30.7C66.6,192,80.6,177.1,99,177c19.7-0.2,39.3,0,59,0
		C202.4,176.9,246.9,176.9,291.4,176.9z"/>
	<path fill="#FF4B21" d="M291.1,368.9c-63.8,0-127.6,0-191.4,0c-13.6,0-23.8-6.3-29.5-18.6c-5.7-12.1-3.9-23.8,4.6-34.1
		c6.4-7.8,15-11.3,25.1-11.3c45.8,0,91.6,0,137.5,0c81.6,0,163.3,0,244.9,0c18.3,0,32.6,13.7,32.8,31.3c0.3,18-13.9,32.5-32,32.6
		c-34.5,0.1-69,0-103.5,0C350.1,368.9,320.6,368.9,291.1,368.9z"/>
	<path fill="#FF4B21" d="M291.4,48.9c63.6,0,127.3,0,190.9,0c19.1,0,33.4,14.8,32.7,33.4c-0.6,16.1-13.9,29.7-30.1,30.5
		c-1.2,0.1-2.3,0-3.5,0c-126.8,0-253.6,0-380.4,0c-16.4,0-29.2-9.3-32.9-23.8C63,68.7,77.8,49.2,99,49c20.7-0.2,41.3,0,62,0
		C204.5,48.9,247.9,48.9,291.4,48.9z"/>
</g>
</svg>
